SplineFontDB: 3.2
FontName: GrotvNorm-Black
FullName: Grotv Norm Black
FamilyName: Grotv Norm Black
Weight: Black
Copyright: Copyright (c) 2023, RandomMaerks (Bao Nguyen)
UComments: "2023-2-27: Created with FontForge (http://fontforge.org)"
Version: 1.0
ItalicAngle: 0
UnderlinePosition: -100
UnderlineWidth: 50
Ascent: 800
Descent: 200
InvalidEm: 0
LayerCount: 2
Layer: 0 0 "Back" 1
Layer: 1 0 "Fore" 0
XUID: [1021 36 -67577861 12787]
StyleMap: 0x0040
FSType: 0
OS2Version: 0
OS2_WeightWidthSlopeOnly: 0
OS2_UseTypoMetrics: 1
CreationTime: 1677498165
ModificationTime: 1701268734
PfmFamily: 33
TTFWeight: 900
TTFWidth: 5
LineGap: 90
VLineGap: 0
OS2TypoAscent: 0
OS2TypoAOffset: 1
OS2TypoDescent: 0
OS2TypoDOffset: 1
OS2TypoLinegap: 90
OS2WinAscent: 0
OS2WinAOffset: 1
OS2WinDescent: 0
OS2WinDOffset: 1
HheadAscent: 0
HheadAOffset: 1
HheadDescent: 0
HheadDOffset: 1
OS2Vendor: 'Rand'
MarkAttachClasses: 1
DEI: 91125
LangName: 1033 "" "" "Regular"
Encoding: UnicodeBmp
Compacted: 1
UnicodeInterp: none
NameList: AGL For New Fonts
DisplaySize: -36
AntiAlias: 1
FitToEm: 0
WinInfo: 0 26 4
BeginPrivate: 0
EndPrivate
Grid
-1000 -190 m 0
 2000 -190 l 1024
-1000 738 m 0
 2000 738 l 1024
  Named: "ascender line"
-1000 684 m 0
 2000 684 l 1024
  Named: "cap height"
-1000 492 m 0
 2000 492 l 1024
EndSplineSet
AnchorClass2: "top 3"""  "bottom"""  "top""" 
BeginChars: 65536 280

StartChar: a
Encoding: 97 97 0
GlifName: a
Width: 577
Flags: HMW
AnchorPoint: "bottom" 300 0 basechar 0
AnchorPoint: "top" 272 605 basechar 0
LayerCount: 2
Fore
SplineSet
319 76 m 1
 294.348148148 16.6666666667 251.681481482 -13 191 -13 c 0
 98.8378378379 -13 36 49.1974522292 36 142 c 0
 36 233.168831169 97.3890987588 290.663788451 198 298 c 2
 294 305 l 2
 314.73630869 306.512022509 322 315.96875 322 332 c 0
 322 354.653061224 301.448979592 369 269 369 c 0
 233.845545976 369 208.345545976 349.641509433 201 315 c 1
 32 370 l 1
 65.3430291278 458.19760479 153.7688361 513 264 513 c 0
 403.534883721 513 504 431.056497175 504 317 c 2
 504 163 l 2
 504 145.478260869 511.14893617 137 525 137 c 0
 530.074626865 137 536.343283582 138 545 140 c 1
 565 4 l 1
 539.881355932 -6.8 516.694915254 -11 489 -11 c 0
 407.487760704 -11 356.455360158 17.3215608398 334.191531762 76 c 1
 319 76 l 1
322 202 m 1
 249 197 l 2
 225.112065745 195.36384012 208 182.428571429 208 163 c 0
 208 143.729729729 226.612244897 132 256 132 c 0
 293.84 132 322 160.097560976 322 196 c 2
 322 202 l 1
EndSplineSet
EndChar

StartChar: n
Encoding: 110 110 1
GlifName: n
Width: 582
Flags: HMW
AnchorPoint: "top" 291 605 basechar 0
LayerCount: 2
Fore
SplineSet
52 492 m 1
 204 492 l 1
 220 414 l 5
 232 414 l 5
 257.09859155 479.629213483 301.718309859 513 364 513 c 0
 464.025641026 513 530 435.021505376 530 317 c 6
 530 0 l 1
 348 0 l 1
 348 292 l 6
 348 336 326.90625 363 294 363 c 0
 259.714285715 363 234 334 234 294 c 6
 234 0 l 1
 52 0 l 1
 52 492 l 1
EndSplineSet
EndChar

StartChar: h
Encoding: 104 104 2
GlifName: h
Width: 582
Flags: HMW
LayerCount: 2
Fore
SplineSet
52 738 m 1
 234 738 l 1
 234 414 l 5
 248 414 l 5
 271.428571429 479.629213483 312.428571428 513 371 513 c 0
 466.807692308 513 530 439 530 327 c 2
 530 0 l 1
 348 0 l 1
 348 292 l 6
 348 336 326.125 363 292 363 c 0
 258.857142857 363 234 334 234 294 c 6
 234 0 l 1
 52 0 l 1
 52 738 l 1
EndSplineSet
EndChar

StartChar: m
Encoding: 109 109 3
GlifName: m
Width: 858
Flags: HMW
LayerCount: 2
Fore
SplineSet
52 492 m 1
 204 492 l 1
 220 414 l 5
 232 414 l 5
 254.88372093 478.516853933 297.790697674 513 355 513 c 0
 416.744186047 513 464.883720931 478.436781609 490 416 c 5
 506 416 l 5
 533.671755726 479.551724138 584.587786259 513 651 513 c 0
 745.66442953 513 806 440.079545455 806 327 c 6
 806 0 l 1
 624 0 l 1
 624 302 l 6
 624 341.426229509 604.944444444 367 575 367 c 0
 543.833333333 367 520 340.305084745 520 304 c 6
 520 0 l 1
 338 0 l 1
 338 302 l 6
 338 341.426229509 318.944444444 367 289 367 c 0
 257.833333333 367 234 340.305084745 234 304 c 6
 234 0 l 1
 52 0 l 1
 52 492 l 1
EndSplineSet
EndChar

StartChar: u
Encoding: 117 117 4
GlifName: u
Width: 582
Flags: HMW
AnchorPoint: "bottom" 302 0 basechar 0
AnchorPoint: "top 3" 348 492 basechar 0
AnchorPoint: "top" 291 605 basechar 0
LayerCount: 2
Fore
SplineSet
530 0 m 1
 380 0 l 1
 364 68 l 1
 350 68 l 1
 324.914893617 9 281.248226951 -21 219 -21 c 0
 119.012738854 -21 52 53 52 165 c 6
 52 492 l 1
 234 492 l 1
 234 190 l 6
 234 146 256 119 289 119 c 0
 323.20289855 119 348 148 348 188 c 6
 348 492 l 1
 530 492 l 1
 530 0 l 1
EndSplineSet
EndChar

StartChar: i
Encoding: 105 105 5
GlifName: i
Width: 292
Flags: HMW
AnchorPoint: "bottom" 149 0 basechar 0
LayerCount: 2
Fore
SplineSet
39 645 m 0
 39 704.510204082 87.4897959184 753 147 753 c 0
 206.510204082 753 255 704.510204082 255 645 c 0
 255 585.489795918 206.510204082 537 147 537 c 0
 87.4897959184 537 39 585.489795918 39 645 c 0
237 0 m 1
 55 0 l 1
 55 492 l 1
 237 492 l 1
 237 0 l 1
EndSplineSet
EndChar

StartChar: l
Encoding: 108 108 6
GlifName: l
Width: 286
Flags: HMW
LayerCount: 2
Fore
SplineSet
234 0 m 5
 52 0 l 1
 52 738 l 1
 234 738 l 5
 234 0 l 5
EndSplineSet
EndChar

StartChar: o
Encoding: 111 111 7
GlifName: o
Width: 588
Flags: HMW
AnchorPoint: "bottom" 294 0 basechar 0
AnchorPoint: "top 3" 309 492 basechar 0
AnchorPoint: "top" 293 605 basechar 0
LayerCount: 2
Fore
SplineSet
368 252 m 6
 368 314.603305785 338.928571428 353 294 353 c 4
 249.071428572 353 220 314.603305785 220 252 c 2
 220 242 l 2
 220 179.396694215 249.071428572 141 294 141 c 4
 338.928571428 141 368 179.396694215 368 242 c 6
 368 252 l 6
550 257 m 6
 550 237 l 6
 550 83 448.016260163 -19 294 -19 c 4
 139.983739837 -19 38 83 38 237 c 2
 38 257 l 2
 38 411 139.983739837 513 294 513 c 4
 448.016260163 513 550 411 550 257 c 6
EndSplineSet
EndChar

StartChar: c
Encoding: 99 99 8
GlifName: c
Width: 576
Flags: HMW
AnchorPoint: "bottom" 303 0 basechar 0
AnchorPoint: "top" 290 605 basechar 0
LayerCount: 2
Fore
SplineSet
548 356 m 5
 382 290 l 5
 366.637360446 333.91767738 343.437868174 353 305.407226562 353 c 4
 251.062030995 353 220 316.266982705 220 252 c 6
 220 242 l 6
 220 177.733017295 251.062030995 141 305.407226562 141 c 4
 343.437868174 141 366.637360446 160.08232262 382 204 c 5
 548 138 l 5
 495.427725141 30.6072449036 417.967009502 -19 302.84765625 -19 c 4
 141.680769163 -19 38 81.2171485354 38 237 c 6
 38 257 l 6
 38 412.782851465 141.680769163 513 302.84765625 513 c 4
 417.967009502 513 495.427725141 463.392755096 548 356 c 5
EndSplineSet
EndChar

StartChar: e
Encoding: 101 101 9
GlifName: e
Width: 584
Flags: HMW
AnchorPoint: "bottom" 306 0 basechar 0
AnchorPoint: "top" 285 605 basechar 0
LayerCount: 2
Fore
SplineSet
188 314 m 1
 188 198 l 1
 547 198 l 5
 547 254 l 6
 547 407.857751372 443.075615256 513 291 513 c 4
 139.392142732 513 38 410.405578895 38 257 c 2
 38 237 l 2
 38 81.4090314279 143.507927555 -19 307 -19 c 4
 423.598409255 -19 497.635213206 20.9368652018 548 111 c 5
 392 177 l 5
 375.714872468 140.976233933 351.116700745 127 304 127 c 4
 251.97683733 127 220 163.164280313 220 222 c 2
 220 272 l 2
 220 334.599878531 250.035738576 373 299 373 c 4
 337.412144503 373 361.544409426 351.427217721 365 314 c 5
 188 314 l 1
EndSplineSet
EndChar

StartChar: s
Encoding: 115 115 10
GlifName: s
Width: 544
Flags: HMW
LayerCount: 2
Fore
SplineSet
336 314 m 2
 258 321 l 2
 231.749877711 323.355780205 220 332.678602547 220 349.965820312 c 0
 220 367.393007866 237.141079601 378 265.303710938 378 c 4
 304.614566269 378 335.988507474 364.505233434 349 342 c 1
 495 405 l 1
 450.767671625 475.343038717 374.533383487 512 272.475585938 512 c 4
 134.44608862 512 43 441.796478431 43 335.830690956 c 0
 43 245.049822002 100.95189956 185.917119068 208 176 c 2
 286 169 l 2
 314.501222893 166.442197946 324 157.130649526 324 140.11328125 c 0
 324 122.379489572 305.217551419 112 273.126953125 112 c 0
 229.92722969 112 193.906856086 132.664646098 179 166 c 1
 33 93 l 1
 80.5973714275 18.1153113212 162.53398489 -22 267.890625 -22 c 0
 412.507397675 -22 506 47.1662124832 506 154.154296875 c 0
 506 245.259823891 446.825370944 303.732979272 336 314 c 2
EndSplineSet
EndChar

StartChar: r
Encoding: 114 114 12
GlifName: r
Width: 420
Flags: HMW
LayerCount: 2
Fore
SplineSet
381 507 m 1
 405 320 l 1
 284.72069101 320 234 285.592981537 234 204 c 2
 234 0 l 1
 52 0 l 1
 52 492 l 1
 204 492 l 1
 220 394 l 1
 232 394 l 1
 253.573280823 482.13584103 286.358764774 507 381 507 c 1
EndSplineSet
EndChar

StartChar: b
Encoding: 98 98 13
GlifName: b
Width: 622
Flags: HMW
LayerCount: 2
Fore
SplineSet
584 257 m 2
 584 237 l 2
 584 92 503 -19 398 -19 c 0
 331.007751938 -19 280.186046512 14 249 77 c 1
 230 77 l 1
 214 0 l 1
 52 0 l 1
 52 738 l 1
 234 738 l 1
 234 426 l 1
 252 426 l 1
 281.166666667 484 327.833333333 513 392 513 c 0
 500 513 584 400 584 257 c 2
402 252 m 2
 402 313.768595041 370 353 318 353 c 0
 266 353 234 313.768595041 234 252 c 2
 234 242 l 2
 234 180.231404959 266 141 318 141 c 0
 370 141 402 180.231404959 402 242 c 2
 402 252 l 2
EndSplineSet
EndChar

StartChar: d
Encoding: 100 100 14
GlifName: d
Width: 622
Flags: HMW
LayerCount: 2
Fore
SplineSet
38 257 m 2
 38 400 124.761658031 513 235 513 c 4
 297.333333334 513 342.666666666 484 371 426 c 5
 388 426 l 5
 388 738 l 5
 570 738 l 5
 570 0 l 5
 408 0 l 5
 392 77 l 5
 374 77 l 5
 343.65116279 14 294.19379845 -19 229 -19 c 4
 121.754010695 -19 38 92 38 237 c 2
 38 257 l 2
220 252 m 2
 220 242 l 2
 220 180.231404959 252 141 304 141 c 4
 356 141 388 180.231404959 388 242 c 6
 388 252 l 6
 388 313.768595041 356 353 304 353 c 4
 252 353 220 313.768595041 220 252 c 2
EndSplineSet
EndChar

StartChar: p
Encoding: 112 112 15
GlifName: p
Width: 622
Flags: HMW
LayerCount: 2
Fore
SplineSet
584 255 m 6
 584 235 l 6
 584 92 498.6875 -21 389 -21 c 4
 326.208333333 -21 280.541666667 8 252 66 c 1
 234 66 l 1
 234 -190 l 1
 52 -190 l 1
 52 492 l 1
 214 492 l 1
 230 415 l 1
 249 415 l 1
 279.558139535 478 329.356589147 511 395 511 c 4
 501.693548387 511 584 400 584 255 c 6
402 250 m 6
 402 311.768595041 370 351 318 351 c 4
 266 351 234 311.768595041 234 250 c 2
 234 240 l 2
 234 178.231404959 266 139 318 139 c 4
 370 139 402 178.231404959 402 240 c 6
 402 250 l 6
EndSplineSet
EndChar

StartChar: q
Encoding: 113 113 16
GlifName: q
Width: 622
Flags: HMW
LayerCount: 2
Fore
SplineSet
38 255 m 2
 38 400 121.754010695 511 229 511 c 4
 294.19379845 511 343.65116279 478 374 415 c 5
 392 415 l 5
 408 492 l 5
 570 492 l 5
 570 -190 l 5
 388 -190 l 5
 388 66 l 5
 371 66 l 5
 342.666666666 8 297.333333334 -21 235 -21 c 4
 124.761658031 -21 38 92 38 235 c 2
 38 255 l 2
220 250 m 2
 220 240 l 2
 220 172.115702479 252 129 304 129 c 4
 356 129 388 172.115702479 388 240 c 6
 388 250 l 6
 388 311.768595041 356 351 304 351 c 4
 252 351 220 311.768595041 220 250 c 2
EndSplineSet
EndChar

StartChar: t
Encoding: 116 116 17
GlifName: t
Width: 435
Flags: HMW
LayerCount: 2
Fore
SplineSet
291 198 m 2
 291 336 l 1
 406 336 l 1
 406 492 l 1
 291 492 l 1
 291 632 l 1
 109 602 l 1
 109 492 l 1
 28 492 l 1
 28 336 l 1
 109 336 l 1
 109 173 l 2
 109 47.1483069432 173.352220869 -13 308 -13 c 0
 351.361984411 -13 386.204582419 -5.4255221723 423 12 c 1
 399 167 l 1
 374.169997457 158.655873754 357.41390942 155 344 155 c 0
 308.661559328 155 291 169.329189643 291 198 c 2
EndSplineSet
EndChar

StartChar: f
Encoding: 102 102 18
GlifName: f
Width: 444
Flags: HMW
LayerCount: 2
Fore
SplineSet
117 0 m 1
 299 0 l 1
 299 336 l 1
 416 336 l 1
 416 492 l 1
 299 492 l 1
 299 524 l 2
 299 575.211297372 327.616608576 593 410 593 c 1
 386 753 l 1
 213.814359604 753 117 673.461065158 117 532 c 2
 117 492 l 1
 28 492 l 1
 28 336 l 1
 117 336 l 1
 117 0 l 1
EndSplineSet
EndChar

StartChar: j
Encoding: 106 106 19
GlifName: j
Width: 292
Flags: HMW
LayerCount: 2
Fore
SplineSet
39 645 m 0
 39 704.510204082 87.4897959184 753 147 753 c 0
 206.510204082 753 255 704.510204082 255 645 c 0
 255 585.489795918 206.510204082 537 147 537 c 0
 87.4897959184 537 39 585.489795918 39 645 c 0
-6 -200 m 1
 158.78111588 -200 237 -135.505392284 237 22 c 6
 237 492 l 1
 55 492 l 1
 55 38 l 6
 55 -13.9438202247 30.3917525773 -31 -22 -31 c 1
 -6 -200 l 1
EndSplineSet
EndChar

StartChar: g
Encoding: 103 103 20
GlifName: g
Width: 588
Flags: HMW
LayerCount: 2
Fore
SplineSet
413 362 m 1
 391 301 l 1
 264 503 l 1
 533 503 l 1
 533 362 l 1
 413 362 l 1
230 -25 m 2
 230 -46 255.223880597 -60 295 -60 c 0
 336.093333333 -60 362 -46 362 -25 c 2
 362 -21 l 2
 362 -8 348 0 326 0 c 2
 262 0 l 2
 242 0 230 -8 230 -21 c 2
 230 -25 l 2
308 343 m 2
 308 368 291.176470588 383 264 383 c 0
 236.823529412 383 220 368 220 343 c 2
 220 341 l 2
 220 316 236.823529412 301 264 301 c 0
 291.176470588 301 308 316 308 341 c 2
 308 343 l 2
293 -200 m 0
 141.29113924 -200 58 -160.495934959 58 -87 c 2
 58 -84 l 2
 58 -39 86 -12 142 -1 c 1
 142 16 l 1
 73 29.0909090909 41 59.6363636364 41 112 c 0
 41 155.063291139 81 188.898734177 137 193 c 1
 137 206 l 1
 86 234 58 281 58 339 c 2
 58 344 l 2
 58 440 139.979591837 503 264 503 c 1
 394 358 l 1
 430 348.796345417 450 314.991452992 450 284 c 2
 450 279 l 2
 450 217.073619632 378.989361702 176 272 176 c 0
 251.458333333 176 232.125 178 214 180 c 1
 203 177 197 171 197 163 c 0
 197 150 208 143 227 143 c 2
 358 143 l 2
 464 143 534 78 534 -21 c 2
 534 -27 l 2
 534 -131 438.180722892 -200 293 -200 c 0
EndSplineSet
EndChar

StartChar: v
Encoding: 118 118 21
GlifName: v
Width: 575
Flags: HMW
LayerCount: 2
Fore
SplineSet
417 0 m 5
 161 0 l 5
 25 492 l 5
 221 492 l 5
 283 180 l 5
 295 180 l 5
 355 492 l 5
 551 492 l 5
 417 0 l 5
EndSplineSet
EndChar

StartChar: w
Encoding: 119 119 22
GlifName: w
Width: 845
Flags: HMW
LayerCount: 2
Fore
SplineSet
381 0 m 1
 125 0 l 1
 25 492 l 1
 211 492 l 1
 247 181 l 1
 259 181 l 1
 295 492 l 1
 551 492 l 1
 597 181 l 1
 609 181 l 1
 635 492 l 1
 821 492 l 1
 731 0 l 1
 475 0 l 1
 431 327 l 5
 420 327 l 5
 381 0 l 1
EndSplineSet
EndChar

StartChar: x
Encoding: 120 120 23
GlifName: x
Width: 545
Flags: HMW
LayerCount: 2
Fore
SplineSet
124 246 m 5
 25 492 l 1
 224 492 l 1
 267 339 l 1
 279 339 l 1
 322 492 l 1
 521 492 l 1
 412 246 l 1
 521 0 l 1
 322 0 l 1
 279 153 l 1
 267 153 l 1
 224 0 l 1
 25 0 l 1
 124 246 l 5
EndSplineSet
EndChar

StartChar: y
Encoding: 121 121 24
GlifName: y
Width: 577
Flags: HMW
AnchorPoint: "bottom" 494 0 basechar 0
AnchorPoint: "top" 293 605 basechar 0
LayerCount: 2
Fore
SplineSet
387 -36 m 2
 353.54098061 -142.423868904 263.193717277 -199 166 -199 c 0
 108 -199 50 -183 15 -158 c 1
 37 2 l 1
 65 -12.72 97 -21 126 -21 c 0
 151.763888889 -21 172.47706422 -11.7431192661 179 10 c 2
 182 20 l 1
 27 492 l 1
 223 492 l 1
 284 221 l 1
 296 221 l 1
 357 492 l 1
 553 492 l 1
 387 -36 l 2
EndSplineSet
EndChar

StartChar: z
Encoding: 122 122 25
GlifName: z
Width: 499
Flags: HMW
LayerCount: 2
Fore
SplineSet
455 0 m 1
 455 157 l 1
 269 157 l 1
 269 178 l 1
 455 295 l 1
 455 492 l 1
 44 492 l 1
 44 335 l 1
 222 335 l 1
 222 317 l 1
 44 197 l 1
 44 0 l 1
 455 0 l 1
EndSplineSet
EndChar

StartChar: k
Encoding: 107 107 26
GlifName: k
Width: 623
Flags: HMW
LayerCount: 2
Fore
SplineSet
226 302 m 1
 386 492 l 1
 598 492 l 1
 422 273 l 1
 598 0 l 1
 386 0 l 1
 286 151 l 5
 226 85 l 5
 226 302 l 1
236 0 m 1
 52 0 l 1
 52 738 l 1
 236 738 l 1
 236 0 l 1
EndSplineSet
EndChar

StartChar: L
Encoding: 76 76 27
GlifName: L_
Width: 546
Flags: HMW
LayerCount: 2
Fore
SplineSet
512 0 m 1
 52 0 l 1
 52 684 l 1
 234 684 l 1
 234 178 l 5
 512 178 l 5
 512 0 l 1
EndSplineSet
EndChar

StartChar: I
Encoding: 73 73 28
GlifName: I_
Width: 286
Flags: HMW
AnchorPoint: "bottom" 149 0 basechar 0
AnchorPoint: "top" 145 785 basechar 0
LayerCount: 2
Fore
SplineSet
234 0 m 1
 52 0 l 1
 52 684 l 1
 234 684 l 1
 234 0 l 1
EndSplineSet
EndChar

StartChar: H
Encoding: 72 72 29
GlifName: H_
Width: 706
Flags: HMW
LayerCount: 2
Fore
SplineSet
234 0 m 1
 52 0 l 1
 52 684 l 1
 234 684 l 1
 234 429 l 1
 472 429 l 5
 472 684 l 5
 654 684 l 5
 654 0 l 5
 472 0 l 5
 472 251 l 5
 234 251 l 1
 234 0 l 1
EndSplineSet
EndChar

StartChar: N
Encoding: 78 78 30
GlifName: N_
Width: 726
Flags: HMW
AnchorPoint: "top" 378 785 basechar 0
LayerCount: 2
Fore
SplineSet
234 0 m 1
 52 0 l 1
 52 684 l 1
 274 684 l 1
 475 321 l 1
 492 321 l 1
 492 684 l 1
 674 684 l 1
 674 0 l 1
 452 0 l 1
 249 367 l 1
 234 367 l 1
 234 0 l 1
EndSplineSet
EndChar

StartChar: M
Encoding: 77 77 31
GlifName: M_
Width: 858
Flags: HMW
LayerCount: 2
Fore
SplineSet
234 0 m 1
 52 0 l 1
 52 684 l 1
 314 684 l 1
 420 343 l 1
 438 343 l 1
 544 684 l 1
 806 684 l 1
 806 0 l 1
 624 0 l 1
 624 387 l 5
 609 387 l 5
 510 70 l 1
 348 70 l 1
 249 387 l 5
 234 387 l 5
 234 0 l 1
EndSplineSet
EndChar

StartChar: E
Encoding: 69 69 32
GlifName: E_
Width: 556
Flags: HMW
AnchorPoint: "bottom" 293 0 basechar 0
AnchorPoint: "top" 288 785 basechar 0
LayerCount: 2
Fore
SplineSet
512 0 m 1
 52 0 l 1
 52 684 l 1
 512 684 l 1
 512 516 l 1
 234 516 l 1
 234 428 l 1
 482 428 l 1
 482 260 l 1
 234 260 l 1
 234 168 l 1
 512 168 l 1
 512 0 l 1
EndSplineSet
EndChar

StartChar: F
Encoding: 70 70 33
GlifName: F_
Width: 556
Flags: HMW
LayerCount: 2
Fore
SplineSet
234 0 m 1
 52 0 l 1
 52 684 l 1
 512 684 l 1
 512 516 l 1
 234 516 l 1
 234 428 l 1
 482 428 l 1
 482 260 l 5
 234 260 l 5
 234 0 l 1
EndSplineSet
EndChar

StartChar: T
Encoding: 84 84 34
GlifName: T_
Width: 626
Flags: HMW
LayerCount: 2
Fore
SplineSet
592 684 m 5
 592 506 l 5
 404 506 l 5
 404 0 l 5
 222 0 l 5
 222 506 l 5
 34 506 l 1
 34 684 l 1
 592 684 l 5
EndSplineSet
EndChar

StartChar: C
Encoding: 67 67 35
GlifName: C_
Width: 709
Flags: HMW
AnchorPoint: "top" 358 785 basechar 0
LayerCount: 2
Fore
SplineSet
671 457 m 5
 489 422 l 5
 479.636228403 495.086386584 435.916025544 533 361 533 c 4
 274.397698717 533 220 459.3123372 220 342 c 2
 220 332 l 2
 220 220.778555882 274.357880548 151 361 151 c 4
 436.02719859 151 479.652648329 185.423206436 489 252 c 5
 671 217 l 5
 631.420048347 62.3780102576 524.525204365 -19 361 -19 c 4
 166.906687038 -19 38 119.085800976 38 327 c 2
 38 347 l 2
 38 560.917498583 166.911932465 703 361 703 c 4
 524.515746243 703 631.417147199 618.168565693 671 457 c 5
EndSplineSet
EndChar

StartChar: O
Encoding: 79 79 36
GlifName: O_
Width: 728
Flags: HMW
AnchorPoint: "bottom" 364 0 basechar 0
AnchorPoint: "top 3" 431 684 basechar 0
AnchorPoint: "top" 367 785 basechar 0
LayerCount: 2
Fore
SplineSet
690 344 m 2
 690 330 l 2
 690 120 560.026143791 -19 364 -19 c 0
 167.973856209 -19 38 120 38 330 c 2
 38 344 l 2
 38 560 167.973856209 703 364 703 c 0
 560.026143791 703 690 560 690 344 c 2
508 339 m 2
 508 459.570093458 451 533 364 533 c 0
 277 533 220 459.570093458 220 339 c 2
 220 335 l 2
 220 221.352941176 277 151 364 151 c 0
 451 151 508 221.352941176 508 335 c 2
 508 339 l 2
EndSplineSet
EndChar

StartChar: G
Encoding: 71 71 37
GlifName: G_
Width: 733
Flags: HMW
LayerCount: 2
Fore
SplineSet
489 451 m 1
 469.849206349 501.647058824 421.468253968 533 362 533 c 0
 275.165467626 533 220 458.772511848 220 342 c 2
 220 332 l 2
 220 218.537313433 276 151 370 151 c 0
 445 151 491 182.238095238 508 247 c 1
 343 247 l 1
 343 399 l 1
 681 399 l 1
 681 0 l 1
 548 0 l 1
 532 131 l 1
 516 131 l 1
 490.70967742 40 413.784946236 -19 320 -19 c 0
 151.007352941 -19 38 119 38 327 c 2
 38 347 l 2
 38 561 168.154605263 703 365 703 c 0
 510.161290323 703 621.989247311 632.5 665 515 c 1
 489 451 l 1
EndSplineSet
EndChar

StartChar: Q
Encoding: 81 81 38
GlifName: Q_
Width: 728
Flags: HMW
LayerCount: 2
Fore
SplineSet
304 249 m 1
 608 -35 l 1
 707 67 l 1
 402 350 l 1
 304 249 l 1
508 339 m 2
 508 335 l 2
 508 221.352941176 451 151 364 151 c 0
 277 151 220 221.352941176 220 335 c 2
 220 339 l 2
 220 459.570093458 277 533 364 533 c 0
 451 533 508 459.570093458 508 339 c 2
690 344 m 2
 690 560 560.026143791 703 364 703 c 0
 167.973856209 703 38 560 38 344 c 2
 38 330 l 2
 38 120 167.973856209 -19 364 -19 c 0
 560.026143791 -19 690 120 690 330 c 2
 690 344 l 2
EndSplineSet
EndChar

StartChar: S
Encoding: 83 83 39
GlifName: S_
Width: 664
Flags: HMW
LayerCount: 2
Fore
SplineSet
426 421 m 2
 298 428 l 2
 257.48834662 430.215481044 230 450.153231188 230 484.638094522 c 0
 230 522.798147711 265.036327027 546 321.591796875 546 c 0
 380.060483509 546 421.013343295 518.676110909 433 472 c 1
 616 496 l 1
 588.124823267 622.879739334 475.561469607 703 322.541992188 703 c 0
 156.467624727 703 43 609.3112168 43 466.664436989 c 0
 43 345.964104979 115.133085864 255.719284367 238 249 c 2
 366 242 l 2
 413.366153472 239.409663482 434 224.564342075 434 193.866210938 c 0
 434 157.178476802 397.855067843 135 338.580078125 135 c 0
 276.460038126 135 234.10497349 161.94757059 220 210 c 1
 39 175 l 1
 66.8881751365 54.8868818354 182.740124282 -22 338.290039062 -22 c 0
 509.141094245 -22 626 70.2241051566 626 211.026367188 c 0
 626 328.938276653 555.285218767 413.929714599 426 421 c 2
EndSplineSet
EndChar

StartChar: V
Encoding: 86 86 40
GlifName: V_
Width: 739
Flags: HW
LayerCount: 2
Fore
SplineSet
504 0 m 5
 248 0 l 5
 25 684 l 1
 221 684 l 1
 370 201 l 5
 382 201 l 5
 518 684 l 1
 714 684 l 1
 504 0 l 5
EndSplineSet
EndChar

StartChar: W
Encoding: 87 87 41
GlifName: W_
Width: 1057
Flags: HW
LayerCount: 2
Fore
SplineSet
451 0 m 5
 165 0 l 5
 25 684 l 1
 221 684 l 1
 297 191 l 5
 309 191 l 5
 381 684 l 5
 677 684 l 5
 759 191 l 5
 771 191 l 5
 836 684 l 5
 1032 684 l 5
 903 0 l 5
 617 0 l 5
 537 509 l 5
 526 509 l 5
 451 0 l 5
EndSplineSet
EndChar

StartChar: A
Encoding: 65 65 42
GlifName: A_
Width: 739
Flags: HW
AnchorPoint: "bottom" 374 0 basechar 0
AnchorPoint: "top" 374 785 basechar 0
LayerCount: 2
Fore
SplineSet
586 117 m 1
 178 117 l 1
 178 277 l 1
 586 277 l 1
 586 117 l 1
250 684 m 1
 486 684 l 1
 714 0 l 1
 518 0 l 1
 374 483 l 1
 362 483 l 1
 221 0 l 1
 25 0 l 1
 250 684 l 1
EndSplineSet
EndChar

StartChar: Z
Encoding: 90 90 43
GlifName: Z_
Width: 589
Flags: HW
LayerCount: 2
Fore
SplineSet
545 0 m 1
 545 177 l 1
 269 177 l 5
 269 198 l 5
 545 467 l 1
 545 684 l 1
 44 684 l 1
 44 507 l 1
 312 507 l 1
 312 489 l 1
 44 217 l 1
 44 0 l 1
 545 0 l 1
EndSplineSet
EndChar

StartChar: Y
Encoding: 89 89 44
GlifName: Y_
Width: 699
Flags: HWO
AnchorPoint: "bottom" 356 0 basechar 0
AnchorPoint: "top" 351 785 basechar 0
LayerCount: 2
Fore
SplineSet
441 0 m 1
 261 0 l 1
 261 200 l 1
 25 684 l 1
 221 684 l 1
 345 411 l 1
 357 411 l 5
 478 684 l 5
 674 684 l 1
 441 200 l 1
 441 0 l 1
EndSplineSet
EndChar

StartChar: X
Encoding: 88 88 45
GlifName: X_
Width: 677
Flags: HW
LayerCount: 2
Fore
SplineSet
189 334 m 5
 25 684 l 1
 224 684 l 1
 336 427 l 5
 348 427 l 5
 453 684 l 5
 652 684 l 5
 485 334 l 5
 652 0 l 5
 453 0 l 5
 348 241 l 5
 336 241 l 5
 229 0 l 1
 30 0 l 1
 189 334 l 5
EndSplineSet
EndChar

StartChar: J
Encoding: 74 74 46
GlifName: J_
Width: 655
Flags: HW
LayerCount: 2
Fore
SplineSet
315 -21 m 0
 157.177423515 -21 45.8069551224 76.942823268 33 227 c 5
 203 260 l 5
 219.362416713 190.338160933 254.870985581 158 315 158 c 0
 381.681208881 158 421 195.835063152 421 260 c 6
 421 684 l 1
 603 684 l 1
 603 228 l 6
 603 78.3109139227 488.134364619 -21 315 -21 c 0
EndSplineSet
EndChar

StartChar: D
Encoding: 68 68 47
GlifName: D_
Width: 686
Flags: HW
LayerCount: 2
Fore
SplineSet
648 331 m 2
 648 132 522.013071895 0 332 0 c 2
 52 0 l 1
 52 684 l 1
 332 684 l 2
 522.013071895 684 648 549 648 345 c 2
 648 331 l 2
322 176 m 2
 408.961038961 176 466 237.123595506 466 336 c 2
 466 340 l 2
 466 444.774193548 408.961038961 508 322 508 c 2
 234 508 l 1
 234 176 l 1
 322 176 l 2
EndSplineSet
EndChar

StartChar: U
Encoding: 85 85 48
GlifName: U_
Width: 701
Flags: HW
AnchorPoint: "bottom" 351 0 basechar 0
AnchorPoint: "top 3" 467 684 basechar 0
AnchorPoint: "top" 355 785 basechar 0
LayerCount: 2
Fore
SplineSet
351 -21 m 0
 172.01384083 -21 52 84.9671178431 52 245 c 2
 52 684 l 1
 234 684 l 1
 234 280 l 2
 234 202.999855324 278.220472441 158 351 158 c 0
 423.730158729 158 467 202.999855324 467 280 c 2
 467 684 l 1
 649 684 l 1
 649 245 l 2
 649 84.9671178431 530.006944444 -21 351 -21 c 0
EndSplineSet
EndChar

StartChar: K
Encoding: 75 75 49
GlifName: K_
Width: 687
Flags: HW
LayerCount: 2
Fore
SplineSet
226 392 m 1
 446 684 l 5
 658 684 l 5
 422 363 l 1
 662 0 l 5
 438 0 l 5
 286 241 l 1
 226 175 l 1
 226 392 l 1
236 0 m 1
 52 0 l 1
 52 684 l 1
 236 684 l 1
 236 0 l 1
EndSplineSet
EndChar

StartChar: B
Encoding: 66 66 50
GlifName: B_
Width: 666
Flags: HW
LayerCount: 2
Fore
SplineSet
522 358 m 1
 522 337 l 1
 587.619047619 315 628 263 628 193 c 2
 628 181 l 2
 628 72 542 0 412 0 c 2
 52 0 l 1
 52 684 l 1
 412 684 l 2
 533 684 614 611 614 500 c 2
 614 488 l 2
 614 426 579.5 379 522 358 c 1
387 518 m 2
 234 518 l 1
 234 425 l 1
 387 425 l 2
 413.85483871 425 432 441.392156863 432 469 c 2
 432 473 l 2
 432 501.018867925 413.85483871 518 387 518 c 2
390 263 m 2
 234 263 l 1
 234 166 l 1
 390 166 l 2
 423.894736842 166 446 183.1 446 211 c 2
 446 215 l 2
 446 244.793103448 423.894736842 263 390 263 c 2
EndSplineSet
EndChar

StartChar: P
Encoding: 80 80 51
GlifName: P_
Width: 666
Flags: HW
LayerCount: 2
Fore
SplineSet
52 0 m 1
 52 684 l 1
 392 684 l 6
 525 684 614 589.6 614 448 c 6
 614 436 l 6
 614 299.547169811 525 210 390 210 c 6
 234 210 l 1
 234 0 l 1
 52 0 l 1
370 511 m 6
 234 511 l 1
 234 383 l 1
 370 383 l 6
 407.804878049 383 432 407.718309859 432 448 c 6
 432 452 l 6
 432 488.369863014 407.804878049 511 370 511 c 6
EndSplineSet
EndChar

StartChar: R
Encoding: 82 82 52
GlifName: R_
Width: 666
Flags: HW
LayerCount: 2
Fore
SplineSet
365 512 m 6
 234 512 l 1
 234 384 l 1
 365 384 l 6
 405.896103896 384 432 407.484848485 432 446 c 6
 432 450 l 6
 432 488.294117647 405.896103896 512 365 512 c 6
52 0 m 1
 52 684 l 1
 387 684 l 6
 519.396313364 684 608 602 608 479 c 6
 608 473 l 6
 608 397.136986301 563.274193548 341.575342465 490 317 c 5
 490 295 l 5
 566 281.166666666 614 218.384615384 614 129 c 6
 614 0 l 5
 432 0 l 5
 432 118 l 6
 432 179.764705882 396.894736842 218 345 218 c 6
 234 218 l 1
 234 0 l 1
 52 0 l 1
EndSplineSet
EndChar

StartChar: uni0080
Encoding: 128 128 53
GlifName: uni0080
Width: 550
Flags: HW
AnchorPoint: "top" 272 605 basechar 0
AnchorPoint: "bottom" 272 0 basechar 0
LayerCount: 2
Fore
SplineSet
89 272 m 2
 89 265 l 2
 89 143 160 64 269 64 c 0
 378 64 449 143 449 265 c 2
 449 272 l 2
 449 394 378 473 269 473 c 0
 160 473 89 394 89 272 c 2
55 272 m 2
 55 415 136 506 263 506 c 0
 342 506 402 469 435 402 c 1
 451 402 l 1
 457 492 l 1
 483 492 l 1
 483 0 l 2
 483 -116 395 -200 275 -200 c 0
 165 -200 83 -141 63 -49 c 1
 99 -42 l 1
 119 -121 181 -164 273 -164 c 0
 378 -164 449 -96 449 7 c 2
 449 128 l 1
 435 128 l 1
 402 66 343 31 263 31 c 0
 136 31 55 122 55 265 c 2
 55 272 l 2
EndSplineSet
EndChar

StartChar: period
Encoding: 46 46 54
GlifName: period
Width: 292
Flags: HW
LayerCount: 2
Fore
SplineSet
39 95 m 4
 39 154.510204082 87.4897959184 203 147 203 c 4
 206.510204082 203 255 154.510204082 255 95 c 4
 255 35.489795918 206.510204082 -13 147 -13 c 4
 87.4897959184 -13 39 35.489795918 39 95 c 4
EndSplineSet
EndChar

StartChar: comma
Encoding: 44 44 55
GlifName: comma
Width: 292
Flags: HW
LayerCount: 2
Fore
SplineSet
177 -130 m 5
 55 -130 l 5
 75 184 l 5
 237 184 l 5
 177 -130 l 5
EndSplineSet
EndChar

StartChar: colon
Encoding: 58 58 56
GlifName: colon
Width: 292
Flags: HW
LayerCount: 2
Fore
SplineSet
39 405 m 4
 39 464.510204082 87.4897959184 513 147 513 c 4
 206.510204082 513 255 464.510204082 255 405 c 4
 255 345.489795918 206.510204082 297 147 297 c 4
 87.4897959184 297 39 345.489795918 39 405 c 4
39 95 m 4
 39 154.510204082 87.4897959184 203 147 203 c 4
 206.510204082 203 255 154.510204082 255 95 c 4
 255 35.489795918 206.510204082 -13 147 -13 c 4
 87.4897959184 -13 39 35.489795918 39 95 c 4
EndSplineSet
EndChar

StartChar: semicolon
Encoding: 59 59 57
GlifName: semicolon
Width: 292
Flags: HW
LayerCount: 2
Fore
SplineSet
177 -130 m 1
 55 -130 l 1
 75 184 l 1
 237 184 l 1
 177 -130 l 1
39 405 m 4
 39 464.510204082 87.4897959184 513 147 513 c 4
 206.510204082 513 255 464.510204082 255 405 c 4
 255 345.489795918 206.510204082 297 147 297 c 4
 87.4897959184 297 39 345.489795918 39 405 c 4
EndSplineSet
EndChar

StartChar: exclam
Encoding: 33 33 58
GlifName: exclam
Width: 292
Flags: HW
LayerCount: 2
Fore
SplineSet
39 95 m 4
 39 154.510204082 87.4897959184 203 147 203 c 4
 206.510204082 203 255 154.510204082 255 95 c 4
 255 35.489795918 206.510204082 -13 147 -13 c 4
 87.4897959184 -13 39 35.489795918 39 95 c 4
57 684 m 5
 239 684 l 5
 219 252 l 5
 77 252 l 5
 57 684 l 5
EndSplineSet
EndChar

StartChar: eight
Encoding: 56 56 59
GlifName: eight
Width: 614
Flags: HW
LayerCount: 2
Fore
SplineSet
304.547851562 419.737304688 m 5
 264.108699484 430.357426832 240 455.846694686 240 490.468738758 c 4
 240 526.98056173 266.812382595 553 307.04754173 553 c 4
 347.373715708 553 374 526.862712884 374 491.015831421 c 4
 374 455.711762058 348.173988467 430.614205357 304.547851562 419.737304688 c 5
448 337.0703125 m 5
 448 359.813476562 l 5
 511.142608512 388.075000037 551 448.71437525 551 517.395419719 c 4
 551 626.345621396 450.702255375 703 306.727216842 703 c 4
 161.399575927 703 63 624.898565974 63 509.849728978 c 4
 63 440.326382978 98.9327199101 386.154376638 162 360.081054688 c 5
 162 335.377929688 l 5
 85.4876645245 308.369118437 38 248.307559878 38 172.98277773 c 4
 38 58.977811199 146.780884427 -22 307.072561045 -22 c 4
 466.128578469 -22 576 57.7341371278 576 167.180757786 c 4
 576 241.977685431 524.684620066 307.784241763 448 337.0703125 c 5
306.8359375 266.630859375 m 5
 356.955906446 258.725539583 384 235.308385628 384 196.114213386 c 4
 384 155.378678675 354.786991923 128 307.410259301 128 c 4
 260.01746995 128 230 155.397239959 230 196.091200988 c 4
 230 234.474677292 256.705626168 258.113297384 306.8359375 266.630859375 c 5
EndSplineSet
EndChar

StartChar: question
Encoding: 63 63 60
GlifName: question
Width: 556
Flags: HW
LayerCount: 2
Fore
SplineSet
177 95 m 4
 177 155 225 203 285 203 c 4
 345 203 393 155 393 95 c 4
 393 35 345 -13 285 -13 c 4
 225 -13 177 35 177 95 c 4
364 315 m 5
 357 252 l 5
 215 252 l 5
 205 396 l 5
 261 396 l 6
 312 396 346 427 346 473 c 6
 346 477 l 6
 346 523.255813953 315 555 269 555 c 4
 226 555 195 527.891566265 184 480 c 5
 38 526 l 5
 65 642 145 703 273 703 c 4
 422 703 518 622 518 495 c 6
 518 487 l 6
 518 399 460 337 364 315 c 5
EndSplineSet
EndChar

StartChar: equal
Encoding: 61 61 61
GlifName: equal
Width: 493
Flags: HW
LayerCount: 2
Fore
SplineSet
28 213 m 5
 464 213 l 5
 464 56 l 5
 28 56 l 5
 28 213 l 5
28 513 m 5
 464 513 l 5
 464 356 l 5
 28 356 l 5
 28 513 l 5
EndSplineSet
EndChar

StartChar: hyphen
Encoding: 45 45 62
GlifName: hyphen
Width: 493
Flags: HW
LayerCount: 2
Fore
SplineSet
28 362 m 5
 464 362 l 5
 464 205 l 5
 28 205 l 5
 28 362 l 5
EndSplineSet
EndChar

StartChar: plus
Encoding: 43 43 63
GlifName: plus
Width: 533
Flags: HW
LayerCount: 2
Fore
SplineSet
187.5 205 m 5
 28 205 l 5
 28 362 l 5
 187.5 362 l 5
 187.5 521.5 l 5
 344.5 521.5 l 5
 344.5 362 l 5
 504 362 l 5
 504 205 l 5
 344.5 205 l 5
 344.5 45.5 l 5
 187.5 45.5 l 5
 187.5 205 l 5
EndSplineSet
EndChar

StartChar: zero
Encoding: 48 48 64
GlifName: zero
Width: 628
Flags: HW
LayerCount: 2
Fore
SplineSet
408 339 m 6
 408 335 l 6
 408 201.352941176 370.791666667 151 314 151 c 4
 257.208333333 151 220 201.352941176 220 335 c 6
 220 339 l 6
 220 479.570093458 257.208333333 533 314 533 c 4
 370.791666667 533 408 479.570093458 408 339 c 6
590 344 m 6
 590 580 479.960784314 703 314 703 c 4
 148.039215686 703 38 580 38 344 c 6
 38 330 l 6
 38 100 148.039215686 -19 314 -19 c 4
 479.960784314 -19 590 100 590 330 c 6
 590 344 l 6
EndSplineSet
EndChar

StartChar: one
Encoding: 49 49 65
GlifName: one
Width: 466
Flags: HW
LayerCount: 2
Fore
SplineSet
414 0 m 1
 232 0 l 1
 232 480 l 1
 210.819335938 480 l 1
 195.996915359 409.548044969 160.26830337 370 28 370 c 1
 28 547 l 1
 155.157372757 547 210.196564642 588.146115862 229 684 c 1
 414 684 l 1
 414 0 l 1
EndSplineSet
EndChar

StartChar: three
Encoding: 51 51 66
GlifName: three
Width: 614
Flags: HW
LayerCount: 2
Fore
SplineSet
38 183 m 5
 230 206 l 5
 237.230284941 157.423421763 268.380019583 128 312.57636796 128 c 4
 357.043748448 128 388 157.687228915 388 200.331710646 c 4
 388 239.482732382 361.996815026 267 325 267 c 6
 240 267 l 5
 240 420 l 5
 325 420 l 6
 357.974281458 420 384 448.586747765 384 484.805823339 c 4
 384 524.079561442 353.392402989 553 311.827516395 553 c 4
 270.395806716 553 238.274461823 524.343891633 230 480 c 5
 53 500 l 5
 65.1252228234 622.220780143 169.554580499 703 315.433329335 703 c 4
 460.693060003 703 561 623.019904648 561 507.196541778 c 4
 561 436.573799875 523.769960011 377.647637116 468 360 c 5
 468 337 l 5
 531.895138338 318.313975897 576 253.280769021 576 177.752559287 c 4
 576 60.0217970494 468.672783612 -22 314.619648361 -22 c 4
 159.937071984 -22 48.1955279774 60.8105185481 38 183 c 5
EndSplineSet
EndChar

StartChar: four
Encoding: 52 52 67
GlifName: four
Width: 634
Flags: HW
LayerCount: 2
Fore
SplineSet
511 0 m 1
 329 0 l 1
 329 145 l 1
 29 145 l 1
 29 332 l 1
 256 684 l 1
 511 684 l 1
 511 302 l 1
 605 302 l 1
 605 145 l 1
 511 145 l 1
 511 0 l 1
329 302 m 1
 329 470 l 1
 307.819335938 470 l 1
 205.732421875 302 l 1
 329 302 l 1
EndSplineSet
EndChar

StartChar: seven
Encoding: 55 55 68
GlifName: seven
Width: 563
Flags: HW
LayerCount: 2
Fore
SplineSet
28 684 m 5
 534 684 l 5
 534 507 l 5
 412.945159754 373.550882044 344 189.57616628 344 0 c 5
 162 0 l 5
 162 178.491382378 222.375004538 346.671668595 338 490.264648438 c 5
 338 527 l 5
 28 527 l 5
 28 684 l 5
EndSplineSet
EndChar

StartChar: six
Encoding: 54 54 69
GlifName: six
Width: 609
Flags: HW
LayerCount: 2
Fore
SplineSet
322 138 m 4
 363.104492188 138 389 166.987304688 389 213 c 6
 389 216 l 6
 389 265.21484375 362.170898438 296 319.280273438 296 c 4
 290.82421875 296 255 273.428710938 255 217 c 6
 255 212.919921875 l 6
 255 163.75 286.575195312 138 322 138 c 4
566.517578125 557.079101562 m 5
 400.686523438 478.008789062 l 5
 388.216796875 520.487304688 362.204101562 543 325.58984375 543 c 4
 260.930664062 543 221 470.079101562 221 352 c 6
 221 347 l 6
 221 338.915039062 221.338867188 330.915039062 222.015625 323 c 5
 240.995117188 323 l 5
 269.400390625 399.96875 324.961914062 443 395.936523438 443 c 4
 500.344726562 443 571 353.8046875 571 222 c 6
 571 219 l 6
 571 75.8203125 471.796875 -19 322 -19 c 4
 151.943359375 -19 39 119.0859375 39 327 c 6
 39 347 l 6
 39 562.62109375 153.524414062 703 329.43359375 703 c 4
 439.333984375 703 521.999023438 652.12109375 566.517578125 557.079101562 c 5
EndSplineSet
EndChar

StartChar: nine
Encoding: 57 57 70
GlifName: nine
Width: 609
Flags: HW
LayerCount: 2
Fore
SplineSet
287 546 m 0
 245.895278473 546 220 517.012747977 220 471 c 2
 220 468 l 2
 220 418.78509016 246.829100852 388 289.719726562 388 c 0
 318.176044336 388 354 410.571428571 354 467 c 2
 354 471.080078125 l 2
 354 520.250445087 322.425287356 546 287 546 c 0
42.482421875 126.920898438 m 1
 208.313476562 205.991210938 l 1
 220.782966489 163.512484072 246.795911639 141 283.41015625 141 c 0
 348.069376708 141 388 213.920551129 388 332 c 6
 388 337 l 2
 388 345.085253238 387.660967535 353.084951503 386.984375 361 c 1
 368.004882812 361 l 1
 341.432743203 284.031156908 289.457773246 241 223.063476562 241 c 0
 112.69106809 241 38 330.194941942 38 462 c 2
 38 465 l 2
 38 608.179433521 137.203029636 703 287 703 c 0
 457.056989376 703 570 564.914199024 570 357 c 2
 570 337 l 2
 570 121.378534283 455.475724165 -19 279.56640625 -19 c 0
 169.665855652 -19 87.000652696 31.8789352293 42.482421875 126.920898438 c 1
EndSplineSet
EndChar

StartChar: five
Encoding: 53 53 71
GlifName: five
Width: 586
Flags: HW
LayerCount: 2
Fore
SplineSet
38 138 m 1
 90.2057860179 30.8069720434 168.488622881 -19 284.760742188 -19 c 0
 444.6889639 -19 548 77.1528461025 548 226 c 2
 548 236 l 2
 548 368.777327551 479.120881241 456 374.267578125 456 c 0
 321.156629348 456 283.101310613 440.832330893 256.345703125 409 c 1
 231 409 l 1
 254.094726562 537 l 1
 521 537 l 1
 521 684 l 1
 102 684 l 1
 52 296 l 1
 217 267 l 1
 232.359587286 298.285245582 255.440109437 313 289.15234375 313 c 0
 337.450055928 313 366 281.792863451 366 229 c 2
 366 225 l 2
 366 171.787052968 336.154282938 141 284.568359375 141 c 0
 244.121006762 141 220.048019099 159.823744638 204 204 c 1
 38 138 l 1
EndSplineSet
EndChar

StartChar: two
Encoding: 50 50 72
GlifName: two
Width: 603
Flags: HW
LayerCount: 2
Fore
SplineSet
551 481 m 2
 551 415.232326247 511.732915823 347.054176277 428 293.146484375 c 2
 274 194 l 1
 274 157 l 1
 554 157 l 1
 554 0 l 1
 48 0 l 1
 48 207 l 1
 298 371.787109375 l 2
 346.833215343 403.975446967 369 443.786198168 369 481 c 2
 369 487 l 2
 369 524.304347826 341 553 302 553 c 0
 261 553 228 523.602739726 220 479 c 1
 43 499 l 1
 55 621.600985222 159 703 305 703 c 0
 450 703 551 614.836734694 551 487 c 2
 551 481 l 2
EndSplineSet
EndChar

StartChar: slash
Encoding: 47 47 73
GlifName: slash
Width: 449
Flags: HW
LayerCount: 2
Fore
SplineSet
424 684 m 5
 238 0 l 5
 25 0 l 5
 220 684 l 5
 424 684 l 5
EndSplineSet
EndChar

StartChar: backslash
Encoding: 92 92 74
GlifName: backslash
Width: 449
Flags: HW
LayerCount: 2
Fore
SplineSet
25 684 m 1
 229 684 l 1
 424 0 l 1
 211 0 l 1
 25 684 l 1
EndSplineSet
EndChar

StartChar: bar
Encoding: 124 124 75
GlifName: bar
Width: 286
Flags: HW
LayerCount: 2
Fore
SplineSet
234 -200 m 5
 52 -200 l 5
 52 800 l 5
 234 800 l 5
 234 -200 l 5
EndSplineSet
EndChar

StartChar: quotesingle
Encoding: 39 39 76
GlifName: quotesingle
Width: 292
Flags: HW
LayerCount: 2
Fore
SplineSet
177 414 m 5
 55 414 l 5
 75 738 l 5
 237 738 l 5
 177 414 l 5
EndSplineSet
EndChar

StartChar: quotedbl
Encoding: 34 34 77
GlifName: quotedbl
Width: 532
Flags: HW
LayerCount: 2
Fore
SplineSet
417 414 m 1
 295 414 l 1
 315 738 l 1
 477 738 l 1
 417 414 l 1
177 414 m 1
 55 414 l 1
 75 738 l 1
 237 738 l 1
 177 414 l 1
EndSplineSet
EndChar

StartChar: numbersign
Encoding: 35 35 78
GlifName: numbersign
Width: 759
Flags: HW
LayerCount: 2
Fore
SplineSet
182.171052632 543 m 1
 210 684 l 1
 394 684 l 1
 365.964912281 543 l 1
 734 543 l 1
 734 406 l 1
 338.725146199 406 l 1
 258 0 l 1
 75 0 l 1
 155.131578947 406 l 1
 28 406 l 1
 28 543 l 1
 182.171052632 543 l 1
581.005847953 166 m 1
 548 0 l 1
 365 0 l 1
 397.763157895 166 l 1
 28 166 l 1
 28 303 l 1
 424.802631579 303 l 1
 500 684 l 1
 684 684 l 1
 608.245614035 303 l 1
 734 303 l 1
 734 166 l 1
 581.005847953 166 l 1
EndSplineSet
EndChar

StartChar: dollar
Encoding: 36 36 79
GlifName: dollar
Width: 544
Flags: HW
LayerCount: 2
Fore
SplineSet
299 0 m 1
 299 684 l 1
 247 684 l 1
 247 0 l 1
 299 0 l 1
336 401 m 2
 258 408 l 2
 209.809844674 413.816053229 190 423.71045886 190 446.965820312 c 0
 190 476.825822201 220.005295232 495 269.303710938 495 c 0
 311.432673674 495 345.05574264 474.008140897 359 439 c 1
 485 502 l 1
 442.755423331 572.343038717 369.947019424 609 272.475585938 609 c 0
 134.44608862 609 43 538.796623378 43 432.831054688 c 0
 43 347.729793725 110.149428655 294.809551714 208 283 c 2
 276 276 l 2
 324.925285672 270.095224143 344 260.021719544 344 237.11328125 c 0
 344 206.763536621 316.725897313 189 270.126953125 189 c 0
 219.1250511 189 176.599140762 217.318218727 159 263 c 1
 33 190 l 1
 80.5973714275 115.115311321 162.533984891 75 267.890625 75 c 0
 412.507397675 75 506 144.166212483 506 251.154296875 c 0
 506 336.56023202 449.722824495 387.274831527 336 401 c 2
EndSplineSet
EndChar

StartChar: percent
Encoding: 37 37 80
GlifName: percent
Width: 1079
Flags: HW
LayerCount: 2
Fore
SplineSet
902 180 m 2
 902 178 l 2
 902 137.7109375 884.713867188 113 858 113 c 0
 831.286132812 113 814 137.7109375 814 178 c 2
 814 180 l 2
 814 220.2890625 831.286132812 245 858 245 c 0
 884.713867188 245 902 220.2890625 902 180 c 2
1054 182 m 2
 1054 298.1015625 975.918945312 375 858 375 c 0
 740.081054688 375 662 298.1015625 662 182 c 2
 662 176 l 2
 662 59.8984375 740.081054688 -17 858 -17 c 0
 975.918945312 -17 1054 59.8984375 1054 176 c 2
 1054 182 l 2
751 684 m 1
 521 0 l 1
 318 0 l 1
 557 684 l 1
 751 684 l 1
265 508 m 2
 265 506 l 2
 265 465.7109375 247.713867188 441 221 441 c 0
 194.286132812 441 177 465.7109375 177 506 c 2
 177 508 l 2
 177 548.2890625 194.286132812 573 221 573 c 0
 247.713867188 573 265 548.2890625 265 508 c 2
417 510 m 2
 417 626.1015625 338.918945312 703 221 703 c 0
 103.081054688 703 25 626.1015625 25 510 c 2
 25 504 l 2
 25 387.8984375 103.081054688 311 221 311 c 0
 338.918945312 311 417 387.8984375 417 504 c 2
 417 510 l 2
EndSplineSet
EndChar

StartChar: ampersand
Encoding: 38 38 81
GlifName: ampersand
Width: 735
Flags: HW
LayerCount: 2
Fore
SplineSet
380.581054688 340.120117188 m 1
 450.170733765 380.370542557 487 448.16904616 487 522.395507812 c 0
 487 628.627929688 404.116210938 703 285.727539062 703 c 0
 157.758789062 703 71 631.423828125 71 525.849609375 c 0
 71 449.901367188 98.2412899368 403.97265625 168.983398438 347.39453125 c 1
 86.4195905187 312.037109375 38 248.431640625 38 162.982421875 c 0
 38 54.9836003062 119.576341151 -20 237.072265625 -20 c 0
 325.215845472 -20 393.644205265 14.4319953163 440.364257812 79.6357421875 c 1
 507 0 l 1
 707 0 l 1
 558.196289062 157.51171875 l 1
 608.045322106 210.14217669 641.555447837 276.97357342 656 356.06640625 c 1
 504 385 l 1
 497.212360972 337.199206436 482.409495914 295.528688914 460.96484375 261.331054688 c 1
 380.581054688 340.120117188 l 1
251.342773438 270.657226562 m 1
 353.762695312 171.237304688 l 1
 330.83203125 149.405025962 305.927734375 138 279.41015625 138 c 0
 236.815175644 138 209 161.738665504 209 198.090820312 c 0
 209 227.866546099 221.603032673 251.093620693 251.342773438 270.657226562 c 1
279.986328125 433.493164062 m 1
 238 463.353191254 227 495.023811783 227 512.46875 c 0
 227 544.16061344 247.010742188 566 276.047851562 566 c 0
 305.538085938 566 326 544.7051346 326 514.015625 c 0
 326 480.747212296 310.810546875 453.295268849 279.986328125 433.493164062 c 1
EndSplineSet
EndChar

StartChar: parenleft
Encoding: 40 40 82
GlifName: parenleft
Width: 382
Flags: HW
LayerCount: 2
Fore
SplineSet
344 81 m 1
 263.041666666 101.819672131 210 171.328623537 210 335 c 2
 210 339 l 2
 210 509.503859626 263.041666666 582.212598425 344 603 c 1
 324 763 l 1
 152.026143791 743 38 599.442896936 38 344 c 2
 38 330 l 2
 38 80.4584527221 152.026143791 -59 324 -79 c 1
 344 81 l 1
EndSplineSet
EndChar

StartChar: parenright
Encoding: 41 41 83
GlifName: parenright
Width: 382
Flags: HW
LayerCount: 2
Fore
SplineSet
38 603 m 1
 118.958333334 582.180327869 172 512.671376463 172 349 c 2
 172 345 l 2
 172 174.496140374 118.958333334 101.787401575 38 81 c 1
 58 -79 l 1
 229.973856209 -59 344 84.5571030641 344 340 c 2
 344 354 l 2
 344 603.541547278 229.973856209 743 58 763 c 1
 38 603 l 1
EndSplineSet
EndChar

StartChar: bracketleft
Encoding: 91 91 84
GlifName: bracketleft
Width: 382
Flags: HW
LayerCount: 2
Fore
SplineSet
344 81 m 5
 210 81 l 5
 210 603 l 5
 344 603 l 5
 344 763 l 5
 38 763 l 5
 38 -79 l 5
 344 -79 l 5
 344 81 l 5
EndSplineSet
EndChar

StartChar: bracketright
Encoding: 93 93 85
GlifName: bracketright
Width: 382
Flags: HW
LayerCount: 2
Fore
SplineSet
38 603 m 1
 172 603 l 1
 172 81 l 1
 38 81 l 1
 38 -79 l 1
 344 -79 l 1
 344 763 l 1
 38 763 l 1
 38 603 l 1
EndSplineSet
EndChar

StartChar: braceleft
Encoding: 123 123 86
GlifName: braceleft
Width: 382
Flags: HW
LayerCount: 2
Fore
SplineSet
200 347.5 m 1
 254.117897878 360.870170313 279.999999624 398.884507251 280 465 c 2
 280 489 l 2
 280 555.941879638 300.786662906 592.968122939 344 603 c 1
 324 763 l 1
 187.466199702 749.502346236 108 650.537495681 108 494 c 2
 108 465 l 2
 108 434.513616343 92.3891069252 415 68 415 c 2
 32 415 l 1
 32 258 l 1
 68 258 l 2
 89.0957192538 258 107.999999809 234.369649306 108 208 c 2
 108 180 l 2
 108 29.3660387758 187.254272517 -65.6657046591 324 -79 c 1
 344 81 l 1
 300.689312565 90.5484274163 280 124.168560335 280 185 c 2
 280 208 l 2
 280 264.044418171 245.874363156 314.166447286 200 325.5 c 1
 200 347.5 l 1
EndSplineSet
EndChar

StartChar: braceright
Encoding: 125 125 87
GlifName: braceright
Width: 382
Flags: HW
LayerCount: 2
Fore
SplineSet
182 336.5 m 1
 127.882102122 323.129829687 102.000000376 285.115492749 102 219 c 2
 102 195 l 2
 102 128.058120362 81.2133370938 91.0318770608 38 81 c 1
 58 -79 l 1
 194.533800298 -65.5023462358 274 33.4625043188 274 190 c 2
 274 219 l 2
 274 249.486383657 289.610893075 269 314 269 c 2
 350 269 l 1
 350 426 l 1
 314 426 l 2
 292.904280746 426 274.000000191 449.630350694 274 476 c 2
 274 504 l 2
 274 654.633961224 194.745727483 749.665704659 58 763 c 1
 38 603 l 1
 81.3106874347 593.451572584 102 559.831439665 102 499 c 2
 102 476 l 2
 102 419.955581829 136.125636844 369.833552714 182 358.5 c 1
 182 336.5 l 1
EndSplineSet
EndChar

StartChar: less
Encoding: 60 60 88
GlifName: less
Width: 542
Flags: HW
LayerCount: 2
Fore
SplineSet
25 157 m 5
 25 413 l 5
 517 569 l 5
 517 373 l 5
 205 291 l 5
 205 279 l 5
 517 199 l 5
 517 3 l 5
 25 157 l 5
EndSplineSet
EndChar

StartChar: greater
Encoding: 62 62 89
GlifName: greater
Width: 542
Flags: HW
LayerCount: 2
Fore
SplineSet
517 415 m 5
 517 159 l 5
 25 3 l 5
 25 199 l 5
 337 281 l 5
 337 293 l 5
 25 373 l 5
 25 569 l 5
 517 415 l 5
EndSplineSet
EndChar

StartChar: asterisk
Encoding: 42 42 90
GlifName: asterisk
Width: 622
Flags: HW
LayerCount: 2
Fore
SplineSet
244 558 m 1
 270 578 l 1
 230 768 l 1
 392 768 l 1
 351 578 l 1
 377 557 l 1
 547 656 l 1
 597 502 l 1
 401 481 l 1
 390 453 l 1
 538 320 l 1
 407 225 l 1
 325 408 l 1
 297 408 l 1
 215 225 l 1
 84 320 l 1
 232 452 l 1
 220 481 l 1
 25 502 l 1
 75 656 l 1
 244 558 l 1
EndSplineSet
EndChar

StartChar: asciicircum
Encoding: 94 94 91
GlifName: asciicircum
Width: 575
Flags: HW
LayerCount: 2
Fore
SplineSet
159 738 m 5
 415 738 l 5
 551 492 l 5
 355 492 l 5
 293 638 l 5
 281 638 l 5
 221 492 l 5
 25 492 l 5
 159 738 l 5
EndSplineSet
EndChar

StartChar: underscore
Encoding: 95 95 92
GlifName: underscore
Width: 663
Flags: HW
LayerCount: 2
Fore
SplineSet
28 102 m 1
 634 102 l 5
 634 -55 l 5
 28 -55 l 1
 28 102 l 1
EndSplineSet
EndChar

StartChar: grave
Encoding: 96 96 93
GlifName: grave
Width: 470
Flags: HW
LayerCount: 2
Fore
SplineSet
24 738 m 5
 230 738 l 5
 446 492 l 5
 250 492 l 5
 24 738 l 5
EndSplineSet
EndChar

StartChar: at
Encoding: 64 64 94
GlifName: at
Width: 848
Flags: HW
LayerCount: 2
Fore
SplineSet
568.790039062 112.8671875 m 1
 592.12890625 -14.923828125 l 1
 540.176663875 -31.3865052209 483.919418582 -40 424 -40 c 0
 191.895424837 -40 38 106.965616046 38 329 c 2
 38 343 l 2
 38 571.033426184 191.895424837 722 424 722 c 0
 656.104575163 722 810 578.968337731 810 363 c 2
 810 357 l 2
 810 194.56626506 707.642857143 143 620 143 c 0
 540.637681159 143 482.724637681 185.078947368 472 249 c 9
 472 257 l 1
 454 257 l 1
 431.813953488 207.125 395.658914729 181 348 181 c 0
 280.620320855 181 228 249.94140625 228 340 c 2
 228 353 l 2
 228 442.375 283.49222798 513 354 513 c 0
 393.875 513 422.875 490.666666667 441 446 c 1
 458 446 l 1
 458 502 l 1
 600 502 l 1
 600 310 l 2
 600 290 606.666666667 277 624 277 c 0
 648.111111111 277 668 295 668 355 c 2
 668 359 l 2
 668 504.770491803 571.416666667 593 424 593 c 0
 276.583333333 593 180 496.859813084 180 339 c 2
 180 335 l 2
 180 184.294117646 276.583333333 91 424 91 c 0
 475.72507508 91 524.169451536 98.4650996012 568.790039062 112.8671875 c 1
370 348 m 6
 370 345 l 6
 370 311.975206612 386.761904762 291 414 291 c 0
 441.238095238 291 458 311.975206612 458 345 c 2
 458 348 l 2
 458 381.636363636 441.238095238 403 414 403 c 0
 386.761904762 403 370 381.636363636 370 348 c 6
EndSplineSet
EndChar

StartChar: asciitilde
Encoding: 126 126 95
GlifName: asciitilde
Width: 468
Flags: HW
LayerCount: 2
Fore
SplineSet
169 275 m 4
 147 275 134 255 134 213 c 5
 25 213 l 5
 25 318 68 402 162 402 c 4
 224 402 247 377 264 359 c 4
 275 348 284 339 299 339 c 4
 321 339 334 359 334 401 c 5
 443 401 l 5
 443 296 400 212 306 212 c 4
 251 212 227 232 210 249 c 4
 195 263 186 275 169 275 c 4
EndSplineSet
EndChar

StartChar: exclamdown
Encoding: 161 161 96
GlifName: exclamdown
Width: 292
Flags: HW
LayerCount: 2
Fore
SplineSet
255 464 m 4
 255 404.489795918 206.510204082 356 147 356 c 4
 87.489795918 356 39 404.489795918 39 464 c 4
 39 523.510204082 87.489795918 572 147 572 c 4
 206.510204082 572 255 523.510204082 255 464 c 4
237 -125 m 5
 55 -125 l 5
 75 307 l 5
 217 307 l 5
 237 -125 l 5
EndSplineSet
EndChar

StartChar: questiondown
Encoding: 191 191 97
GlifName: questiondown
Width: 556
Flags: HW
LayerCount: 2
Fore
SplineSet
379 459 m 0
 379 399 331 351 271 351 c 0
 211 351 163 399 163 459 c 0
 163 519 211 567 271 567 c 0
 331 567 379 519 379 459 c 0
192 239 m 1
 199 302 l 1
 341 302 l 1
 351 158 l 1
 295 158 l 2
 244 158 210 127 210 81 c 2
 210 77 l 2
 210 30.744186047 241 -1 287 -1 c 0
 330 -1 361 26.108433735 372 74 c 1
 518 28 l 1
 491 -88 411 -149 283 -149 c 0
 134 -149 38 -68 38 59 c 2
 38 67 l 2
 38 155 96 217 192 239 c 1
EndSplineSet
EndChar

StartChar: dotlessi
Encoding: 305 305 98
GlifName: dotlessi
Width: 292
Flags: HW
AnchorPoint: "top" 147 605 basechar 0
LayerCount: 2
Fore
SplineSet
237 0 m 1
 55 0 l 1
 55 492 l 1
 237 492 l 1
 237 0 l 1
EndSplineSet
EndChar

StartChar: gravecomb
Encoding: 768 768 99
GlifName: gravecomb
Width: 294
Flags: HW
HStem: 472 186<120 150>
VStem: -36 302
AnchorPoint: "top" 149 491 mark 0
LayerCount: 2
Fore
SplineSet
-36 638 m 1
 150 638 l 1
 266 452 l 1
 120 452 l 1
 -36 638 l 1
EndSplineSet
EndChar

StartChar: acutecomb
Encoding: 769 769 101
GlifName: acutecomb
Width: 294
Flags: HW
HStem: 472 186<149 179>
VStem: 33 302
AnchorPoint: "top" 149 491 mark 0
LayerCount: 2
Fore
SplineSet
335 638 m 1
 179 452 l 1
 33 452 l 1
 149 638 l 1
 335 638 l 1
EndSplineSet
EndChar

StartChar: uni0302
Encoding: 770 770 103
GlifName: uni0302
Width: 294
Flags: HW
HStem: 472 196<68 90 204 224>
AnchorPoint: "top" 149 491 mark 0
LayerCount: 2
Fore
SplineSet
48 608 m 1
 244 608 l 1
 350 452 l 1
 204 452 l 1
 152 548 l 1
 140 548 l 1
 90 452 l 1
 -56 452 l 1
 48 608 l 1
EndSplineSet
EndChar

StartChar: tildecomb
Encoding: 771 771 104
GlifName: tildecomb
Width: 294
Flags: HW
HStem: 471 117<168.796 234.309> 534 117<57.691 122.295>
VStem: -53 104<472 529.637> 241 104<592.363 650>
AnchorPoint: "top" 149 491 mark 0
LayerCount: 2
Fore
SplineSet
86 514 m 0x70
 64 514 51 494 51 452 c 1
 -53 452 l 1
 -53 551.444444444 -13.1386861314 631 74 631 c 0x70
 132.352941176 631 153.522690447 605.5071414 170 588 c 0
 181.314285714 577 190.571428571 568 206 568 c 0
 228 568 241 588 241 630 c 1
 345 630 l 1
 345 530.555555556 305.138686131 451 218 451 c 0xb0
 165.864583333 451 143.660356476 471.5959567 127 488 c 0
 112 502 103 514 86 514 c 0x70
EndSplineSet
EndChar

StartChar: uni0308
Encoding: 776 776 105
GlifName: uni0308
Width: 294
Flags: HW
HStem: 462 196<-33.283 75.283 216.717 325.283>
VStem: -67 176<495.917 624.083> 183 176<495.917 624.083>
AnchorPoint: "top" 149 491 mark 0
LayerCount: 2
Fore
SplineSet
183 540 m 0
 183 594 222.510204082 638 271 638 c 0
 319.489795919 638 359 594 359 540 c 0
 359 486 319.489795919 442 271 442 c 0
 222.510204082 442 183 486 183 540 c 0
-67 540 m 0
 -67 594 -27.4897959183 638 21 638 c 0
 69.4897959187 638 109 594 109 540 c 0
 109 486 69.4897959187 442 21 442 c 0
 -27.4897959183 442 -67 486 -67 540 c 0
EndSplineSet
EndChar

StartChar: uni030A
Encoding: 778 778 106
GlifName: uni030A_
Width: 294
Flags: HW
HStem: 471 92<120.246 175.754> 634 92<120.246 175.754>
VStem: 18 99<566.584 630.416> 179 99<566.584 630.416>
AnchorPoint: "top" 149 491 mark 0
LayerCount: 2
Fore
SplineSet
179 579 m 6
 179 598.876599583 165.604988202 614 148 614 c 4
 130.395011798 614 117 598.876599583 117 579 c 6
 117 578 l 6
 117 558.123400417 130.395011798 543 148 543 c 4
 165.604988202 543 179 558.123400417 179 578 c 6
 179 579 l 6
278 582 m 6
 278 575 l 6
 278 505.194750617 221.182922741 451 148 451 c 4
 74.8170772589 451 18 505.194750617 18 575 c 6
 18 582 l 6
 18 651.805249383 74.8170772589 706 148 706 c 4
 221.182922741 706 278 651.805249383 278 582 c 6
EndSplineSet
EndChar

StartChar: uni0327
Encoding: 807 807 107
GlifName: uni0327
Width: 294
Flags: HW
AnchorPoint: "bottom" 149 0 mark 0
LayerCount: 2
Fore
SplineSet
21.7216796875 -166.481445312 m 1
 101.221679688 -114.21484375 l 1
 110.162318995 -132.759727916 128.6951046 -145 151 -145 c 0
 178.716113809 -145 191 -135.06176544 191 -122 c 2
 191 -121 l 2
 191 -106.802428869 179.944502428 -96 155 -96 c 2
 101 -96 l 1
 101 20 l 1
 195 20 l 1
 195 -33.98046875 l 1
 256.25 -33.98046875 295 -76.4412992117 295 -122 c 2
 295 -125 l 2
 295 -182.983392634 244.695739521 -228 151 -228 c 0
 93.4566100138 -228 45.0357090628 -203.346128374 21.7216796875 -166.481445312 c 1
EndSplineSet
EndChar

StartChar: ae
Encoding: 230 230 160
GlifName: ae
Width: 864
Flags: HW
LayerCount: 2
Fore
SplineSet
472 314 m 1
 649 314 l 1
 645.387337127 351.427217721 620.158151072 373 580 373 c 4
 532.895140908 373 504 346.005855205 504 302 c 2
 504 222 l 2
 504 163.164280313 535.97683733 127 588 127 c 0
 635.116700745 127 659.714872468 140.976233933 676 177 c 1
 832 111 l 1
 789.994513919 20.9368652018 728.245976184 -19 631 -19 c 0
 467.507927555 -19 362 81.4090314279 362 237 c 1
 442 327 l 1
 463.790228398 448.458740916 523.331210522 513 618 513 c 0
 744.531664256 513 831 407.857751372 831 254 c 2
 831 198 l 1
 472 198 l 1
 472 314 l 1
322 202 m 1
 249 197 l 2
 225.248412402 195.373178932 208 182.428571429 208 163 c 0
 208 143.729729729 226.612244897 132 256 132 c 0
 293.84 132 322 160.097560976 322 196 c 2
 322 202 l 1
394 114 m 1
 366 114 l 1
 333.644444444 29.3333333334 277.644444445 -13 198 -13 c 0
 101.675675676 -13 36 49.1974522292 36 142 c 0
 36 233.168831169 95.3996762008 290.51872639 198 298 c 2
 294 305 l 2
 313.275933195 306.7754149 322 316.78125 322 334 c 0
 322 355.428571428 301.06122449 369 268 369 c 0
 235.929238506 369 209.679238506 349.641509433 198 315 c 1
 32 370 l 1
 62.1811901588 458.19760479 142.221791297 513 242 513 c 0
 354.790697674 513 414.444444445 456.141242938 436 377 c 1
 466 377 l 1
 394 114 l 1
EndSplineSet
EndChar

StartChar: thorn
Encoding: 254 254 161
GlifName: thorn
Width: 622
Flags: HW
LayerCount: 2
Fore
SplineSet
584 257 m 6
 584 237 l 6
 584 92 503 -19 398 -19 c 4
 331.007751938 -19 280.186046512 14 249 77 c 1
 230 77 l 1
 230 -190 l 1
 52 -190 l 1
 52 738 l 1
 234 738 l 1
 234 426 l 1
 252 426 l 1
 281.166666667 484 327.833333333 513 392 513 c 4
 500 513 584 400 584 257 c 6
402 252 m 6
 402 313.768595041 370 353 318 353 c 4
 266 353 234 313.768595041 234 252 c 2
 234 242 l 2
 234 180.231404959 266 141 318 141 c 4
 370 141 402 180.231404959 402 242 c 6
 402 252 l 6
EndSplineSet
EndChar

StartChar: oslash
Encoding: 248 248 162
GlifName: oslash
Width: 588
Flags: HW
LayerCount: 2
Fore
SplineSet
489 564 m 1
 405 564 l 1
 90 -80 l 1
 183 -80 l 1
 489 564 l 1
398 248 m 2
 398 244 l 2
 398 167.760330579 357.142857142 121 294 121 c 0
 230.857142858 121 190 167.760330579 190 244 c 2
 190 248 l 2
 190 325.479338843 230.857142858 373 294 373 c 0
 357.142857142 373 398 325.479338843 398 248 c 2
550 254 m 2
 550 409.8046875 448.016260163 513 294 513 c 0
 139.983739837 513 38 409.8046875 38 254 c 2
 38 240 l 2
 38 84.1953125 139.983739837 -19 294 -19 c 0
 448.016260163 -19 550 84.1953125 550 240 c 2
 550 254 l 2
EndSplineSet
EndChar

StartChar: eth
Encoding: 240 240 163
GlifName: eth
Width: 629
Flags: HW
LayerCount: 2
Fore
SplineSet
238 590 m 1
 559 732 l 1
 603 636 l 1
 283 494 l 1
 238 590 l 1
298 138 m 0
 338.71208897 138 375 170.6240061 375 232.919921875 c 2
 375 237 l 2
 375 307.714460543 333.602653316 336 300.719726562 336 c 0
 251.677237934 336 221 297.518554688 221 236 c 2
 221 233 l 2
 221 174.717252605 250.760508978 138 298 138 c 0
415 738 m 1
 501.816143498 671.052631579 591 505.91677851 591 367 c 2
 591 347 l 2
 591 127.067783598 474.065709198 -19 298 -19 c 0
 142.187186245 -19 39 83.7884059874 39 239 c 2
 39 242 l 2
 39 385.732713518 113.691253691 483 224.063476562 483 c 0
 304.199563312 483 366.933026747 432.796875 399.004882812 343 c 1
 417.984375 343 l 1
 418.661132812 350.915039062 419 358.915039062 419 367 c 2
 419 372 l 2
 419 497.882144676 323 640 199 738 c 1
 415 738 l 1
EndSplineSet
EndChar

StartChar: Eth
Encoding: 208 208 164
GlifName: E_th
Width: 706
Flags: HW
LayerCount: 2
Fore
SplineSet
342 176 m 2
 428.961038961 176 486 237.123595506 486 336 c 2
 486 340 l 2
 486 444.774193548 428.961038961 508 342 508 c 2
 264 508 l 1
 264 414 l 1
 384 414 l 1
 384 267 l 1
 264 267 l 1
 264 176 l 1
 342 176 l 2
668 331 m 2
 668 132 542.013071895 0 352 0 c 2
 82 0 l 1
 82 267 l 1
 18 267 l 1
 18 414 l 1
 82 414 l 1
 82 684 l 1
 352 684 l 2
 542.013071895 684 668 549 668 345 c 2
 668 331 l 2
EndSplineSet
EndChar

StartChar: Oslash
Encoding: 216 216 165
GlifName: O_slash
Width: 688
Flags: HW
LayerCount: 2
Fore
SplineSet
591 758 m 1
 467 758 l 5
 93 -60 l 5
 226 -60 l 1
 591 758 l 1
468 339 m 2
 468 335 l 2
 468 221.352941176 418.916666667 151 344 151 c 0
 269.083333333 151 220 221.352941176 220 335 c 2
 220 339 l 2
 220 459.570093458 269.083333333 533 344 533 c 0
 418.916666667 533 468 459.570093458 468 339 c 2
650 344 m 2
 650 560 528 703 344 703 c 0
 160 703 38 560 38 344 c 2
 38 330 l 2
 38 120 160 -19 344 -19 c 0
 528 -19 650 120 650 330 c 2
 650 344 l 2
EndSplineSet
EndChar

StartChar: Thorn
Encoding: 222 222 166
GlifName: T_horn
Width: 636
Flags: HW
LayerCount: 2
Fore
SplineSet
234 584 m 1
 362 584 l 2
 495 584 584 489.6 584 348 c 2
 584 336 l 2
 584 199.547169811 495 110 360 110 c 2
 234 110 l 1
 234 0 l 1
 52 0 l 1
 52 684 l 1
 234 684 l 1
 234 584 l 1
234 411 m 1
 234 283 l 1
 340 283 l 2
 377.804878049 283 402 307.718309859 402 348 c 2
 402 352 l 2
 402 388.369863014 377.804878049 411 340 411 c 2
 234 411 l 1
EndSplineSet
EndChar

StartChar: germandbls
Encoding: 223 223 167
GlifName: germandbls
Width: 706
Flags: HW
LayerCount: 2
Fore
SplineSet
314 0 m 1
 314 150 l 1
 393.576171875 150 l 2
 443.349782426 150 478 178.866497047 478 220.33203125 c 0
 478 264.768124 451.996815026 296 415 296 c 2
 330 296 l 1
 330 449 l 1
 415 449 l 2
 447.974281458 449 474 477.586677506 474 513.805664062 c 0
 474 560.56632958 434.910455688 595 381.827148438 595 c 0
 288.528932795 595 234 535.61200346 234 434 c 2
 234 0 l 1
 52 0 l 1
 52 459 l 2
 52 636.876160435 178.677280071 755 369.43359375 755 c 4
 535.988200799 755 651 662.76566208 651 529.196289062 c 0
 651 461.932165744 613.769960011 405.808365227 558 389 c 1
 558 366 l 1
 621.895138338 346.257963349 666 277.549502598 666 197.752929688 c 0
 666 81.200715138 562.779146141 -1.93456362041e-14 414.620117188 0 c 2
 314 0 l 1
EndSplineSet
EndChar

StartChar: AE
Encoding: 198 198 168
GlifName: A_E_
Width: 960
Flags: HW
LayerCount: 2
Fore
SplineSet
916 0 m 1
 456 0 l 1
 456 684 l 1
 916 684 l 1
 916 516 l 1
 638 516 l 1
 638 428 l 1
 886 428 l 1
 886 260 l 1
 638 260 l 1
 638 168 l 1
 916 168 l 1
 916 0 l 1
526 117 m 1
 208 117 l 1
 208 277 l 1
 526 277 l 1
 526 117 l 1
320 684 m 1
 456 684 l 1
 456 483 l 1
 432 483 l 1
 231 0 l 1
 25 0 l 1
 320 684 l 1
EndSplineSet
EndChar

StartChar: mu
Encoding: 181 181 169
GlifName: mu
Width: 582
Flags: HW
LayerCount: 2
Fore
SplineSet
234 -190 m 1
 52 -190 l 1
 52 492 l 1
 234 492 l 1
 234 -190 l 1
530 0 m 5
 380 0 l 5
 364 68 l 5
 350 68 l 5
 330.659574468 9 296.992907802 -21 249 -21 c 4
 166.974522292 -21 112 53 112 165 c 1
 234 190 l 1
 234 146 256 119 289 119 c 4
 323.20289855 119 348 148 348 188 c 6
 348 492 l 5
 530 492 l 5
 530 0 l 5
EndSplineSet
EndChar

StartChar: multiply
Encoding: 215 215 170
GlifName: multiply
Width: 533
Flags: HW
LayerCount: 2
Fore
SplineSet
266 172.484375 m 1
 153.216796875 59.701171875 l 1
 42.201171875 170.716796875 l 1
 154.984375 283.5 l 1
 42.201171875 396.283203125 l 1
 153.216796875 507.298828125 l 1
 266 394.515625 l 1
 378.783203125 507.298828125 l 1
 489.798828125 396.283203125 l 1
 377.015625 283.5 l 1
 489.798828125 170.716796875 l 1
 378.783203125 59.701171875 l 1
 266 172.484375 l 1
EndSplineSet
EndChar

StartChar: divide
Encoding: 247 247 171
GlifName: divide
Width: 493
Flags: HW
LayerCount: 2
Fore
SplineSet
147 473 m 0
 147 527 191 571 245 571 c 0
 299 571 343 527 343 473 c 0
 343 419 299 375 245 375 c 0
 191 375 147 419 147 473 c 0
147 93 m 0
 147 147 191 191 245 191 c 0
 299 191 343 147 343 93 c 0
 343 38.9999999997 299 -5 245 -5 c 0
 191 -5 147 38.9999999997 147 93 c 0
28 342 m 1
 464 342 l 1
 464 225 l 1
 28 225 l 1
 28 342 l 1
EndSplineSet
EndChar

StartChar: cent
Encoding: 162 162 172
GlifName: cent
Width: 576
Flags: HW
LayerCount: 2
Fore
SplineSet
548 467 m 5
 495.427725141 567.552452224 417.967009502 614 302.84765625 614 c 4
 141.680769163 614 38 513.782851465 38 358 c 2
 38 338 l 2
 38 182.217148535 141.680769163 82 302.84765625 82 c 4
 417.967009502 82 495.427725141 128.447547776 548 229 c 5
 402 295 l 5
 382.625848951 244.111262718 353.368476482 222 305.407226562 222 c 4
 238.335895806 222 200 266.006882106 200 343 c 2
 200 353 l 2
 200 429.993117894 238.335895806 474 305.407226562 474 c 4
 353.368476482 474 382.625848951 451.888737282 402 401 c 5
 548 467 l 5
334 0 m 5
 334 684 l 5
 282 684 l 5
 282 0 l 5
 334 0 l 5
EndSplineSet
EndChar

StartChar: uni0306
Encoding: 774 774 173
GlifName: uni0306
Width: 294
Flags: HW
AnchorPoint: "top" 149 491 mark 0
LayerCount: 2
Fore
SplineSet
350 635 m 5
 350 628 l 6
 350 528.358635961 261.715003027 451 148 451 c 0
 34.2849969716 451 -54 528.358635961 -54 628 c 6
 -54 635 l 5
 98 635 l 5
 98 631 l 6
 98 597.493732132 119.604857738 572 148 572 c 4
 176.395142262 572 198 597.493732132 198 631 c 6
 198 635 l 5
 350 635 l 5
EndSplineSet
EndChar

StartChar: uni031B
Encoding: 795 795 174
GlifName: uni031B_
Width: 294
Flags: HW
AnchorPoint: "top 3" 4 654 mark 0
LayerCount: 2
Fore
SplineSet
74 531 m 2
 4 531 l 1
 4 654 l 1
 74 654 l 2
 123.853658537 654 147 681.419354839 147 739 c 2
 147 761 l 1
 291 761 l 1
 291 739 l 2
 291 599.595744681 218.666666667 531 74 531 c 2
EndSplineSet
EndChar

StartChar: hookabovecomb
Encoding: 777 777 175
GlifName: hookabovecomb
Width: 294
Flags: HW
HStem: -193 33<99.1577 202.091> -81 32.0195<165 201.783>
VStem: 131 34<-48.9805 20> 211 34<-149.956 -91.2282>
AnchorPoint: "top" 149 491 mark 0
LayerCount: 2
Fore
SplineSet
-4 579 m 1
 15.9304897286 640.741191007 70.1948622958 674 151 674 c 0
 235.274001894 674 295 628.790737545 295 565 c 2
 295 562 l 2
 295 496.734738909 240.837552421 453.900384941 142 441 c 9
 128 506 l 1
 153.998952854 513.535859719 170 528.393974926 170 545 c 2
 170 546 l 2
 170 560.278858492 160.683906055 570 147 570 c 0
 131.409532184 570 119.27052491 558.575051978 113 538 c 1
 -4 579 l 1
EndSplineSet
EndChar

StartChar: dotbelowcomb
Encoding: 803 803 176
GlifName: dotbelowcomb
Width: 294
Flags: HW
HStem: -193 33<99.1577 202.091> -81 32.0195<165 201.783>
VStem: 131 34<-48.9805 20> 211 34<-149.956 -91.2282>
AnchorPoint: "bottom" 149 0 mark 0
LayerCount: 2
Fore
SplineSet
41 -167 m 0
 41 -107.489795918 89.4897959184 -59 149 -59 c 0
 208.510204082 -59 257 -107.489795918 257 -167 c 0
 257 -226.510204082 208.510204082 -275 149 -275 c 0
 89.4897959184 -275 41 -226.510204082 41 -167 c 0
EndSplineSet
EndChar

StartChar: Dcroat
Encoding: 272 272 275
GlifName: D_croat
Width: 706
Flags: HW
LayerCount: 2
Fore
SplineSet
342 176 m 2
 428.961038961 176 486 237.123595506 486 336 c 2
 486 340 l 2
 486 444.774193548 428.961038961 508 342 508 c 2
 284 508 l 1
 284 422 l 1
 384 422 l 1
 384 265 l 1
 284 265 l 1
 284 176 l 1
 342 176 l 2
668 331 m 2
 668 132 542.013071895 0 352 0 c 2
 102 0 l 1
 102 265 l 1
 28 265 l 1
 28 422 l 1
 102 422 l 1
 102 684 l 1
 352 684 l 2
 542.013071895 684 668 549 668 345 c 2
 668 331 l 2
EndSplineSet
EndChar

StartChar: dcroat
Encoding: 273 273 276
GlifName: dcroat
Width: 642
Flags: HW
LayerCount: 2
Fore
SplineSet
220 252 m 2
 220 242 l 2
 220 180.231404959 252 141 304 141 c 4
 356 141 388 180.231404959 388 242 c 6
 388 252 l 6
 388 313.768595041 356 353 304 353 c 4
 252 353 220 313.768595041 220 252 c 2
38 257 m 2
 38 400 124.761658031 513 235 513 c 4
 297.333333334 513 342.666666666 484 371 426 c 5
 388 426 l 5
 388 567 l 5
 236 567 l 5
 236 674 l 5
 388 674 l 5
 388 738 l 5
 570 738 l 5
 570 674 l 5
 642 674 l 5
 642 567 l 5
 570 567 l 5
 570 0 l 5
 408 0 l 5
 392 77 l 5
 374 77 l 5
 343.65116279 14 294.19379845 -19 229 -19 c 4
 121.754010695 -19 38 92 38 237 c 2
 38 257 l 2
EndSplineSet
EndChar

StartChar: uni1E9E
Encoding: 7838 7838 279
GlifName: uni1E_9E_
Width: 756
Flags: HW
LayerCount: 2
Fore
SplineSet
360 188 m 1
 384.127448469 161.265984942 415.386370018 146 446 146 c 0
 495.761337838 146 530 172.086599743 530 210 c 0
 530 243.238446205 503.737230016 267 467 267 c 2
 382 267 l 1
 382 400 l 1
 486 491 l 1
 486 511 l 1
 469.639136921 525.357960386 430.050749557 536 393 536 c 0
 292.650257453 536 234 476.243133916 234 374 c 2
 234 0 l 1
 52 0 l 1
 52 399 l 2
 52 582.885490179 190.875324895 705 400 705 c 0
 524.715737422 705 620.845054493 668.314606913 683 597 c 1
 683 485 l 1
 580 390 l 1
 580 367 l 1
 663.144052177 346.48607635 718 281.357278245 718 178 c 0
 718 59.9961685563 615.094808462 -22 467 -22 c 0
 387.038710041 -22 310.894735646 9.94332584362 262 64 c 1
 360 188 l 1
EndSplineSet
EndChar
